PathFileType	4	(X/Y/Z)	C:\Users\Basilio\Documents\Thesis Gigler\squatting_fais\c3dfiles\047\SJ_pre5\markers_experimental.trc
DataRate	CameraRate	NumFrames	NumMarkers	Units	OrigDataRate	OrigDataStartFrame	OrigNumFrames
200.000000	200.000000	4	61	mm	200.000000	870	1393
Frame#	Time	FHD			LBHD			RBHD			C7			T10			CLAV			LSHO			LUUPA			LMUPA			LDUPA			LLEP			LMEP			LRAD			LUL			LRFIN			RSHO			RUPA1			RMUPA			RDUPA			RLEP			RMEP			RRAD			RUL			RUFIN			LASI			RASI			USACR			LSACR			RSACR			LTHI1			LTHI2			LTHI3			LTHI4			LLFC			LMFC			LTIB1			LTIB2			LTIB3			LTIB4			LLMAL			LMMAL			LMT1			LMT2			LMT5			RTHI			RTHI2			RTHI3			RTHI4			RLFC			RMFC			RTIB1			RTIB2			RTIB3			RTIB4			RLMAL			RMMAL			RHEE			RMT1			RMT2			RMT5			*60			
		X1	Y1	Z1	X2	Y2	Z2	X3	Y3	Z3	X4	Y4	Z4	X5	Y5	Z5	X6	Y6	Z6	X7	Y7	Z7	X8	Y8	Z8	X9	Y9	Z9	X10	Y10	Z10	X11	Y11	Z11	X12	Y12	Z12	X13	Y13	Z13	X14	Y14	Z14	X15	Y15	Z15	X16	Y16	Z16	X17	Y17	Z17	X18	Y18	Z18	X19	Y19	Z19	X20	Y20	Z20	X21	Y21	Z21	X22	Y22	Z22	X23	Y23	Z23	X24	Y24	Z24	X25	Y25	Z25	X26	Y26	Z26	X27	Y27	Z27	X28	Y28	Z28	X29	Y29	Z29	X30	Y30	Z30	X31	Y31	Z31	X32	Y32	Z32	X33	Y33	Z33	X34	Y34	Z34	X35	Y35	Z35	X36	Y36	Z36	X37	Y37	Z37	X38	Y38	Z38	X39	Y39	Z39	X40	Y40	Z40	X41	Y41	Z41	X42	Y42	Z42	X43	Y43	Z43	X44	Y44	Z44	X45	Y45	Z45	X46	Y46	Z46	X47	Y47	Z47	X48	Y48	Z48	X49	Y49	Z49	X50	Y50	Z50	X51	Y51	Z51	X52	Y52	Z52	X53	Y53	Z53	X54	Y54	Z54	X55	Y55	Z55	X56	Y56	Z56	X57	Y57	Z57	X58	Y58	Z58	X59	Y59	Z59	X60	Y60	Z60	X61	Y61	Z61	

871	4.350000000000001	15.82277393341065	1542.622314453125	-879.268737792969	-141.600830078125	1528.56396484375	-971.7940673828127	-174.3033905029297	1538.735717773438	-827.2135009765627	-231.5243377685547	1379.039916992188	-911.5710449218752	-323.9278869628907	1075.96875	-887.954772949219	-86.0836868286133	1298.503662109375	-882.8145751953127	-98.67509460449222	1324.346557617188	-1066.7734375	-194.2401123046876	1232.67138671875	-1207.292236328125	-162.2520751953125	1193.110717773438	-1218.832397460938	-212.1070404052735	1179.944091796875	-1250.587280273438	-215.9940185546876	1111.355102539063	-1282.479858398438	-297.7831726074219	1111.503784179688	-1224.138549804688	-237.6176452636719	945.3735351562502	-1086.211181640625	-197.7006072998047	894.2174072265627	-1130.11181640625	-190.9600524902344	926.5895996093752	-1037.145629882813	-174.6595764160157	1360.953247070313	-729.6683959960939	-339.0612487792969	1281.017700195313	-633.8319702148439	-320.1020507812501	1248.539184570313	-601.3731689453126	-378.3581542968751	1235.823852539063	-596.5821533203126	-395.7770996093751	1172.208251953125	-559.1472778320314	-435.8740539550782	1147.83544921875	-639.9277954101564	-248.7758941650391	1005.609008789063	-678.1835327148439	-253.5621032714844	965.359802246094	-613.0441894531251	-209.328109741211	948.3344726562502	-706.9859619140626	-226.0182189941407	825.2635498046877	-970.9195556640627	-248.9546051025391	829.0866699218752	-753.1913452148439	-380.1020202636719	956.085144042969	-884.0683593750002	-394.9022827148439	930.0512695312502	-913.990417480469	-400.7197265625001	930.6516113281252	-855.4625244140627	-314.2074890136719	720.1942138671876	-1096.64208984375	-254.178451538086	670.0480957031251	-1126.96142578125	-208.4642639160157	687.6026000976564	-1115.803833007813	-258.4511718750001	611.5554809570314	-1142.689819335938	-203.9945526123047	450.290496826172	-1167.159912109375	-144.8455352783203	419.7307128906251	-1063.383422851563	-206.4274291992188	266.1678161621094	-1102.653198242188	-251.729476928711	240.7430725097657	-1174.4970703125	-228.2299804687501	226.7904815673829	-1138.1669921875	-270.8644104003907	159.6742095947266	-1110.681274414063	-367.6092224121094	92.07810974121095	-1155.425415039063	-327.6114807128907	96.24563598632815	-1070.031494140625	-213.2848205566407	61.90989303588869	-1129.769409179688	-225.3327026367188	59.94095611572267	-1171.011352539063	-275.3416137695313	45.07102203369141	-1209.625610351563	-329.7644653320313	677.2431640625001	-645.7514038085939	-274.8253479003907	647.1820678710939	-621.1525878906251	-245.1175842285157	662.5286254882814	-621.2361450195314	-259.5988159179688	565.0880126953126	-618.6309814453126	-185.4602203369141	445.287322998047	-602.8035888671876	-132.3222961425782	438.6199340820314	-716.8700561523439	-165.5138702392578	323.9028320312501	-619.6466064453126	-260.3516235351563	269.6755065917969	-601.3753662109376	-217.0693511962891	254.304672241211	-610.2554321289064	-219.4215393066407	207.5487060546876	-646.3583374023439	-338.8395080566407	92.31421661376955	-643.8009643554689	-293.2178649902344	101.9721221923828	-725.6263427734376	-388.7360229492189	51.44466018676759	-704.4476928710939	-177.2523193359375	54.84886169433595	-673.1682128906251	-187.2793426513672	56.05220031738283	-628.5797119140626	-245.2200012207032	28.59562683105469	-582.0368652343751	nan	nan	nan	
872	4.355	20.94051170349121	1526.753662109375	-877.9001464843752	-136.5671081542969	1513.0380859375	-970.7987060546877	-168.9087677001953	1522.188110351563	-826.0284423828127	-226.4588928222657	1362.485595703125	-910.7991333007815	-326.3768615722657	1060.749145507813	-888.4855957031252	-80.66256713867189	1280.3095703125	-882.4775390625002	-95.25466918945314	1306.605590820313	-1067.029296875	-193.4676208496094	1216.533569335938	-1207.470825195313	-162.1540069580078	1176.360107421875	-1219.267578125	-212.6157989501954	1164.399291992188	-1250.790649414063	-217.9354705810547	1095.984985351563	-1282.3427734375	-298.5387878417969	1097.175170898438	-1224.228759765625	-241.5501098632813	930.309265136719	-1086.648315429688	-201.8287048339844	878.9996337890627	-1130.938842773438	-194.5022277832032	911.0617675781252	-1037.406616210938	-169.9931640625	1343.90625	-728.4609985351564	-335.8832702636719	1265.46826171875	-632.5548095703126	-317.5429382324219	1232.38623046875	-600.4071655273439	-376.0438842773438	1220.950317382813	-595.0751342773439	-394.343963623047	1157.70947265625	-558.2420654296876	-435.0871582031251	1134.422729492188	-639.0263061523439	-250.7545166015626	989.2830200195315	-678.4641723632814	-256.5924987792969	948.0098266601565	-613.5253906250001	-212.6301574707032	931.1289672851565	-707.7757568359376	-233.7277832031251	811.563171386719	-972.339294433594	-256.1095581054688	815.1958007812502	-754.6257934570314	-385.4341125488282	944.964782714844	-885.0198974609377	-400.4010009765626	918.9404907226565	-914.546813964844	-406.4472045898439	919.5743408203127	-856.0169067382815	-319.2867126464844	707.5786132812501	-1098.609985351563	-256.4481506347657	660.6028442382814	-1128.84423828125	-211.2767791748047	680.0905761718751	-1117.909545898438	-257.7226867675782	601.4801635742189	-1143.557739257813	-200.4441070556641	444.5554199218751	-1168.5712890625	-139.5547485351563	417.9277343750001	-1063.195068359375	-201.5362091064454	265.2231750488282	-1103.26171875	-246.1588439941407	239.2907104492188	-1175.218505859375	-223.1539764404297	225.6728210449219	-1137.677490234375	-267.6337280273438	159.213851928711	-1110.6669921875	-365.5084533691407	95.31599426269533	-1155.692504882813	-325.5109863281251	98.04364776611331	-1070.60498046875	-211.5043487548829	62.45428848266603	-1130.3818359375	-224.0329132080079	59.95005416870119	-1171.669189453125	-274.5493164062501	45.30589675903321	-1209.831420898438	-329.3763427734376	670.0242309570314	-644.8307495117189	-271.9507141113282	643.8748779296876	-621.3551025390626	-243.4452819824219	660.4062500000001	-622.4107055664064	-253.2416076660157	562.3381347656251	-616.1116333007814	-172.6460723876953	446.5030822753907	-600.7344970703126	-122.3409194946289	440.1207885742189	-715.9204101562501	-157.0072631835938	321.4087524414063	-617.5299072265626	-252.525375366211	269.0189208984376	-597.8612060546876	-209.8556213378907	252.6007537841797	-607.4963378906251	-213.9663848876954	206.2744598388672	-643.9597778320314	-334.4145507812501	91.67998504638673	-642.2089233398439	-287.0273437500001	100.950439453125	-724.4545288085939	-387.0352172851564	53.08270645141603	-704.1188354492189	-174.8486480712891	54.81527328491212	-672.8585815429689	-185.2276153564453	56.73390960693361	-628.5118408203126	-243.8948516845704	29.16998863220216	-582.4704589843751	nan	nan	nan	
873	4.36	26.4953842163086	1511.653442382813	-877.065612792969	-131.4239501953125	1498.140502929688	-969.6861572265627	-163.7822570800782	1506.137451171875	-824.539733886719	-220.9919586181641	1346.759643554688	-910.3466796875002	-328.6813659667969	1046.479614257813	-888.3796386718752	-77.05921173095705	1261.688598632813	-881.8572998046877	-91.95779418945314	1289.218017578125	-1067.573486328125	-192.7775115966797	1201.023071289063	-1207.620239257813	-162.7237548828125	1159.96826171875	-1219.286865234375	-213.4096221923829	1149.080688476563	-1250.881225585938	-219.7845764160157	1080.91455078125	-1282.07373046875	-302.1505737304688	1083.703369140625	-1223.438842773438	-245.5504150390626	915.608581542969	-1087.003051757813	-206.2765045166016	864.6398925781252	-1131.276977539063	-199.7286224365235	896.3963623046877	-1037.347412109375	-165.0316467285157	1327.080810546875	-727.4147949218751	-332.4761962890626	1250.780151367188	-631.4328002929689	-314.7639160156251	1216.644409179688	-599.6677246093751	-373.2906188964844	1206.820068359375	-594.1962280273439	-392.388153076172	1143.464477539063	-557.8739624023439	-433.864959716797	1121.226684570313	-638.3850097656251	-252.7962799072266	972.8375244140627	-678.4224853515626	-259.5764770507813	931.4241333007815	-614.0689697265626	-216.5085754394532	914.4356079101565	-708.3158569335939	-241.6742553710938	796.8845825195315	-972.9913330078127	-263.1752929687501	802.5426025390627	-755.1056518554689	-390.6063232421876	933.546325683594	-886.2279052734377	-406.5998840332032	907.7109375000002	-915.559509277344	-412.1113586425782	908.5073852539065	-856.9715576171877	-323.9017639160157	695.4313354492189	-1100.636596679688	-256.6878662109376	653.1301269531251	-1129.165771484375	-213.0133972167969	675.5270996093751	-1119.036010742188	-254.5931396484376	594.5094604492189	-1144.612426757813	-193.7759399414063	442.7723083496095	-1169.789916992188	-132.0301818847657	418.9628906250001	-1063.3515625	-196.1975860595704	264.0723876953126	-1103.844604492188	-240.1245574951172	238.6331634521485	-1176.365234375	-217.9317779541016	224.3458404541016	-1139.327270507813	-264.2214050292969	158.6684875488282	-1110.35205078125	-362.3047485351563	97.20768737792972	-1155.8154296875	-322.7253723144532	98.2945251464844	-1071.052978515625	-209.8618927001954	62.3157424926758	-1130.968505859375	-221.977279663086	59.7753143310547	-1172.62890625	-273.8918762207032	45.61101913452149	-1209.8994140625	-328.8279113769532	664.2663574218751	-643.7900390625001	-270.1503601074219	640.6685180664064	-621.6610107421876	-242.2870635986329	657.9057006835939	-624.4569702148439	-248.9585723876954	559.6618652343751	-613.3533325195314	-160.420654296875	447.4335021972657	-599.3919677734376	-111.4301071166992	441.5958862304689	-715.4707641601564	-150.1429138183594	319.5149536132813	-616.3644409179689	-246.0222778320313	268.0742187500001	-595.3536376953126	-203.8536071777344	251.6054840087891	-605.9611206054689	-209.0999145507813	205.3447570800782	-642.6279296875001	-329.6390380859376	89.95427703857423	-640.4920654296876	-285.1105651855469	99.88933563232425	-723.2133178710939	-386.1932678222657	53.93137741088869	-704.3157348632814	-173.0907897949219	54.93627548217775	-673.0168457031251	-184.064697265625	55.31409454345705	-629.0020751953126	-242.8894805908204	29.93493270874024	-582.4316406250001	nan	nan	nan	
874	4.365	31.2745590209961	1495.837280273438	-874.7060546875002	-126.2436065673828	1483.175415039063	-968.9200439453127	-158.1145172119141	1490.394287109375	-823.8897705078127	-215.0247955322266	1332.26611328125	-909.855651855469	-331.6085815429688	1034.178344726563	-888.9377441406252	-72.7179641723633	1243.186279296875	-881.5916137695315	-88.02435302734376	1272.184204101563	-1068.238647460938	-192.3365631103516	1185.64013671875	-1207.266235351563	-163.0511016845703	1144.504516601563	-1219.738647460938	-214.4405212402344	1134.676391601563	-1250.543579101563	-221.7118225097657	1066.50732421875	-1281.7265625	-303.6622314453126	1070.382446289063	-1222.69482421875	-248.0822906494141	902.0637207031252	-1087.2451171875	-210.4425659179688	850.3996582031252	-1131.556518554688	-204.4934539794922	882.0430297851565	-1037.137329101563	-159.8361968994141	1310.312622070313	-726.3531494140626	-328.9510192871094	1236.2431640625	-630.3865966796876	-311.8878479003907	1201.502685546875	-598.8503417968751	-370.6221923828126	1192.93505859375	-593.4016723632814	-390.650848388672	1129.608032226563	-557.5200805664064	-432.8135070800782	1108.3701171875	-637.8793334960939	-254.8621368408204	957.0697021484377	-678.8123779296876	-263.0470581054688	915.1758422851565	-614.7026977539064	-220.2098846435547	897.8880615234377	-709.2293090820314	-246.8370056152344	784.9750976562502	-973.5472412109377	-268.5245056152344	790.6167602539065	-755.3073730468751	-396.3674621582032	921.821472167969	-887.5359497070315	-412.2117919921876	895.801452636719	-916.985290527344	-417.7593994140626	896.6990966796877	-858.2713012695315	-326.7784729003907	686.1636962890626	-1101.978149414063	-256.7837829589844	648.1247558593751	-1127.978393554688	-215.3971862792969	672.6909179687501	-1117.982788085938	-252.0361480712891	589.9518432617189	-1144.999755859375	-183.9284210205078	443.6895446777345	-1172.187622070313	-123.8155212402344	419.8684692382814	-1064.057006835938	-191.223388671875	262.8708190917969	-1104.5654296875	-235.2149047851563	237.6385955810547	-1177.2880859375	-213.0494995117188	223.3274536132813	-1139.538330078125	-261.3980407714844	158.9629669189453	-1110.846557617188	-359.5689697265626	98.16886901855472	-1156.805053710938	-320.5686340332032	99.23460388183597	-1071.673950195313	-208.3275146484376	62.56684494018556	-1131.34375	-221.0065155029297	60.71488189697267	-1173.088134765625	-272.9925231933594	45.92177963256837	-1209.674926757813	-328.7654113769532	659.1484375000001	-643.4643554687501	-269.2972106933594	637.4534301757814	-621.8750000000001	-241.884750366211	655.3463134765626	-625.3939819335939	-245.6050567626954	557.6412963867189	-611.8667602539064	-151.1149291992188	447.6354370117189	-598.2271118164064	-101.9667663574219	442.9518127441407	-714.6014404296876	-145.3094177246094	317.2965393066407	-616.7792358398439	-242.0381164550782	266.7843627929688	-595.6372070312501	-199.8423156738282	250.1749572753907	-606.2321777343751	-205.5498046875001	204.0296325683594	-643.5270385742189	-328.0911254882813	90.25164794921876	-640.4951782226564	-283.5615234375001	99.88568115234378	-724.3208618164064	-385.6030578613282	54.26756668090822	-704.6816406250001	-173.0943908691407	54.67760467529298	-673.4270019531251	-183.9029693603516	55.41556549072267	-628.9533081054689	-242.6948852539063	30.42537498474122	-582.6195068359376	nan	nan	nan	
